<?xml version="1.0" standalone="no"?>
<!DOCTYPE svg PUBLIC "-//W3C//DTD SVG 20010904//EN"
 "http://www.w3.org/TR/2001/REC-SVG-20010904/DTD/svg10.dtd">
<svg version="1.0" xmlns="http://www.w3.org/2000/svg"
 width="548.000000pt" height="480.000000pt" viewBox="0 0 548.000000 480.000000"
 preserveAspectRatio="xMidYMid meet">

<g transform="translate(0.000000,480.000000) scale(0.100000,-0.100000)"
fill="#9a48d0" stroke="none">
<path d="M3590 3839 c-207 -196 -454 -454 -548 -571 -38 -48 -90 -111 -115
-140 -72 -81 -326 -428 -353 -480 -9 -18 -40 -67 -68 -109 -110 -165 -292
-510 -411 -780 -42 -96 -83 -186 -91 -201 -8 -14 -14 -32 -14 -40 0 -7 -16
-50 -34 -95 -19 -46 -32 -83 -30 -83 3 0 -3 -15 -12 -32 -10 -18 -21 -46 -25
-63 -4 -16 -17 -63 -29 -104 -11 -40 -18 -76 -15 -79 2 -3 31 20 63 50 33 32
74 60 97 68 22 7 44 16 50 21 5 5 15 9 23 9 7 0 46 16 86 35 40 19 79 35 86
35 7 0 56 14 109 31 128 41 461 128 534 140 32 5 67 13 77 19 10 5 30 10 45
10 14 0 39 7 55 15 16 9 51 18 77 21 27 3 77 11 113 19 82 17 353 40 376 31
13 -5 59 36 186 161 92 92 168 170 168 174 0 24 -204 15 -370 -16 -41 -7 -104
-19 -140 -25 -36 -6 -69 -16 -75 -21 -5 -5 -23 -9 -41 -9 -17 0 -45 -7 -60
-15 -16 -8 -45 -15 -65 -15 -20 0 -52 -6 -71 -14 -37 -16 -158 -46 -158 -40 0
23 44 194 54 209 7 11 16 34 20 51 8 37 56 89 107 115 36 18 84 67 75 77 -3 2
-22 -10 -43 -27 -21 -17 -43 -31 -49 -31 -6 0 -30 -18 -53 -39 -36 -33 -42
-36 -38 -18 3 12 15 69 28 125 22 101 24 106 82 169 32 36 56 68 52 71 -3 3
-12 -4 -21 -16 -16 -23 -77 -83 -80 -79 -1 1 2 25 8 53 7 37 21 64 54 100 26
29 50 70 60 102 9 28 21 52 25 52 5 0 20 18 34 40 30 48 55 194 36 213 -16 16
-18 10 -30 -75 -10 -74 -39 -141 -65 -151 -7 -3 -20 -30 -30 -60 -9 -30 -27
-63 -38 -74 -20 -18 -21 -18 -15 2 4 11 41 180 82 375 l76 355 39 35 c42 38
110 124 110 140 0 16 -20 11 -27 -7 -4 -9 -14 -24 -24 -34 -9 -9 -21 -23 -25
-30 -5 -8 -21 -24 -35 -37 l-27 -23 32 151 32 150 184 185 c102 102 179 185
172 185 -7 0 -89 -72 -182 -161z m-260 -371 c-10 -46 -39 -182 -65 -303 -26
-121 -49 -222 -51 -224 -2 -2 -10 2 -19 9 -23 19 -20 120 5 176 12 24 18 49
15 54 -24 38 -65 -55 -65 -146 0 -62 3 -71 29 -99 l30 -30 -102 -470 c-63
-290 -109 -479 -119 -495 -20 -28 -24 -55 -7 -44 8 5 10 0 6 -17 -3 -13 -11
-52 -18 -87 -13 -61 -14 -63 -54 -74 -22 -6 -69 -19 -105 -29 -35 -10 -66 -17
-68 -15 -2 3 4 32 14 66 14 50 26 71 62 104 44 41 42 62 -3 32 -29 -19 -29
-20 -9 52 24 89 23 86 38 73 11 -9 15 -4 20 26 10 56 46 103 102 132 37 20 54
37 71 71 27 54 33 95 15 95 -7 0 -23 -25 -35 -55 -19 -47 -29 -58 -71 -80 -27
-15 -57 -37 -67 -49 -11 -13 -19 -19 -19 -15 1 28 62 230 70 232 5 2 10 10 10
18 0 7 14 23 30 36 17 12 42 47 56 78 15 30 40 70 58 89 25 27 27 31 8 22 -25
-13 -40 -35 -80 -111 -15 -30 -33 -56 -41 -58 -10 -4 -12 0 -6 14 4 11 17 54
28 98 12 46 34 99 53 128 19 27 39 68 46 91 6 23 16 48 21 55 7 9 6 17 -1 24
-14 14 -42 -7 -42 -31 0 -20 -49 -126 -55 -119 -5 5 169 659 181 680 10 16
146 178 150 178 1 0 -6 -37 -16 -82z m-284 -448 c-34 -126 -65 -229 -70 -227
-5 2 -15 27 -23 57 -7 29 -18 59 -24 66 -5 7 -7 30 -3 55 5 33 28 73 92 162
46 64 85 117 86 117 2 0 -25 -103 -58 -230z m-126 -158 c7 -26 22 -64 32 -85
l19 -37 -131 -493 c-73 -270 -138 -516 -146 -544 -14 -49 -18 -53 -57 -64 -23
-6 -66 -20 -96 -31 -29 -10 -55 -17 -57 -15 -3 2 5 35 17 73 17 56 30 78 71
117 27 26 56 65 64 85 8 20 20 47 26 59 6 13 8 26 4 30 -9 10 -45 -37 -46 -58
0 -28 -66 -116 -78 -105 -2 2 22 89 53 192 52 174 60 192 99 234 83 89 108
135 111 207 4 67 12 87 64 142 29 31 33 51 9 51 -11 0 -63 -52 -86 -89 -9 -14
-17 -49 -18 -87 -2 -58 -6 -69 -48 -129 -26 -36 -48 -65 -50 -65 -4 0 181 630
194 659 14 32 34 14 50 -47z m-285 -563 c-68 -233 -129 -433 -134 -444 -9 -18
-10 -17 -11 10 -3 49 1 68 22 105 29 49 37 181 14 249 l-16 50 58 113 c115
221 184 349 188 345 2 -2 -52 -195 -121 -428z m-128 -194 c-3 -61 -9 -89 -27
-119 -28 -46 -31 -110 -6 -148 17 -26 16 -30 -19 -151 -41 -139 -29 -125 -155
-172 -25 -9 -60 -26 -77 -37 -18 -11 -33 -16 -33 -11 1 24 24 103 40 138 29
63 90 221 90 235 0 6 6 24 14 38 13 24 105 232 144 322 l15 35 9 -25 c5 -14 8
-61 5 -105z"/>
<path d="M2772 2213 c0 -54 3 -106 6 -115 4 -10 6 33 5 94 -3 138 -12 155 -11
21z"/>
<path d="M3040 3829 c-206 -195 -454 -454 -546 -569 -37 -47 -88 -108 -114
-135 -26 -28 -53 -62 -60 -75 -7 -14 -36 -54 -65 -90 -78 -98 -212 -286 -231
-322 -9 -18 -40 -67 -68 -109 -110 -165 -292 -510 -411 -780 -42 -96 -83 -186
-91 -201 -8 -14 -14 -32 -14 -40 0 -7 -16 -50 -34 -95 -19 -46 -32 -83 -30
-83 3 0 -3 -15 -12 -32 -10 -18 -21 -46 -25 -63 -4 -16 -17 -63 -29 -104 -11
-40 -18 -76 -15 -80 4 -3 80 69 169 159 156 158 163 167 168 211 5 44 78 263
119 356 11 24 19 48 19 54 0 6 6 23 14 37 8 15 49 105 91 201 119 270 301 615
411 780 28 42 58 90 67 108 16 30 126 184 238 333 127 168 234 288 432 488
117 116 206 212 199 212 -7 0 -89 -72 -182 -161z"/>
</g>
</svg>